#N canvas 65 53 1301 715 10;
#X obj 488 99 r startSequencer;
#X obj 490 63 s startSequencer;
#X obj 480 37 tgl 15 0 empty empty empty 17 7 0 10 -262144 -1 -1 0
1;
#X obj 494 215 bng 15 250 50 0 empty empty empty 17 7 0 10 -262144
-1 -1;
#X obj 566 174 f;
#X obj 616 173 + 1;
#X obj 579 432 dac~;
#X floatatom 549 213 5 0 0 0 - - -, f 5;
#X obj 512 239 select 0 1 2 3 4;
#X obj 608 212 mod 5;
#X obj 569 391 *~;
#X msg 456 274 261;
#X msg 518 276 392;
#X msg 580 275 466;
#X msg 641 275 293;
#X msg 709 278 523;
#X msg 758 277 329;
#X obj 1073 19 vsl 15 128 0 500 0 0 empty empty empty 0 -9 0 10 -262144
-1 -1 0 1;
#X obj 1114 20 vsl 15 128 0 1 0 0 empty empty empty 0 -9 0 10 -262144
-1 -1 0 1;
#X obj 1156 18 vsl 15 128 0 1000 0 0 empty empty empty 0 -9 0 10 -262144
-1 -1 0 1;
#X obj 1035 19 vsl 15 128 0 300 0 0 empty empty empty 0 -9 0 10 -262144
-1 -1 0 1;
#X floatatom 1028 180 5 0 0 0 - - -, f 5;
#X floatatom 1028 180 5 0 0 0 - - -, f 5;
#X floatatom 1080 182 5 0 0 0 - - -, f 5;
#X floatatom 1132 181 5 0 0 0 - - -, f 5;
#X floatatom 1184 179 5 0 0 0 - - -, f 5;
#X obj 703 499 tabwrite~ adsr;
#X obj 702 466 metro 50;
#X obj 696 418 tgl 15 0 empty empty empty 17 7 0 10 -262144 -1 -1 1
1;
#N canvas 0 50 450 250 (subpatch) 0;
#X array adsr 300 float 1;
#A 0 0 0 0 0 0 0 0 0 0 0 0 0 0 0 0 0 0 0 0 0 0 0 0 0 0 0 0 0 0 0 0
0 0 0 0 0 0 0 0 0 0 0 0 0 0 0 0 0 0 0 0 0 0 0 0 0 0 0 0 0 0 0 0 0 0
0 0 0 0 0 0 0 0 0 0 0 0 0 0 0 0 0 0 0 0 0 0 0 0 0 0 0 0 0 0 0 0 0 0
0 0 0 0 0 0 0 0 0 0 0 0 0 0 0 0 0 0 0 0 0 0 0 0 0 0 0 0 0 0 0 0 0 0
0 0 0 0 0 0 0 0 0 0 0 0 0 0 0 0 0 0 0 0 0 0 0 0 0 0 0 0 0 0 0 0 0 0
0 0 0 0 0 0 0 0 0 0 0 0 0 0 0 0 0 0 0 0 0 0 0 0 0 0 0 0 0 0 0 0 0 0
0 0 0 0 0 0 0 0 0 0 0 0 0 0 0 0 0 0 0 0 0 0 0 0 0 0 0 0 0 0 0 0 0 0
0 0 0 0 0 0 0 0 0 0 0 0 0 0 0 0 0 0 0 0 0 0 0 0 0 0 0 0 0 0 0 0 0 0
0 0 0 0 0 0 0 0 0 0 0 0 0 0 0 0 0 0 0 0 0 0 0 0 0 0 0 0 0 0 0;
#X coords 0 1 299 -1 200 140 1 0 0;
#X restore 171 435 graph;
#X obj 546 148 metro 500;
#X obj 558 341 phasor~;
#X obj 1022 212 s a;
#X obj 1082 209 s d;
#X obj 1135 206 s s;
#X obj 1188 207 s r;
#N canvas 65 53 1301 715 adsr 0;
#X obj 431 126 inlet;
#X obj 458 367 outlet~;
#X obj 426 169 sel 0;
#X obj 482 202 t b b b;
#X obj 454 253 0;
#X obj 524 252 pack 1 0;
#X obj 460 299 line~;
#X connect 0 0 2 0;
#X connect 2 1 3 0;
#X connect 3 1 5 0;
#X connect 3 2 4 0;
#X connect 4 0 6 0;
#X connect 5 0 6 1;
#X connect 6 0 1 0;
#X restore 636 367 pd adsr;
#X connect 0 0 30 0;
#X connect 2 0 1 0;
#X connect 4 0 5 0;
#X connect 4 0 7 0;
#X connect 5 0 9 0;
#X connect 7 0 8 0;
#X connect 8 0 11 0;
#X connect 8 1 12 0;
#X connect 8 2 13 0;
#X connect 8 3 14 0;
#X connect 8 4 15 0;
#X connect 8 5 16 0;
#X connect 9 0 4 1;
#X connect 10 0 6 0;
#X connect 10 0 6 1;
#X connect 10 0 26 0;
#X connect 11 0 31 0;
#X connect 12 0 31 0;
#X connect 13 0 31 0;
#X connect 14 0 31 0;
#X connect 15 0 31 0;
#X connect 16 0 31 0;
#X connect 17 0 23 0;
#X connect 18 0 24 0;
#X connect 19 0 25 0;
#X connect 20 0 21 0;
#X connect 21 0 32 0;
#X connect 23 0 33 0;
#X connect 24 0 34 0;
#X connect 25 0 35 0;
#X connect 27 0 26 0;
#X connect 28 0 27 0;
#X connect 30 0 3 0;
#X connect 30 0 4 0;
#X connect 31 0 10 0;
#X connect 36 0 10 1;
