#N canvas 65 53 1301 715 10;
#X obj 521 47 loadbang;
#X msg 524 91 12;
#X text 569 93 Total number of files;
#X obj 522 133 t f b;
#X text 586 135 Execute trigger \, float \, bang from right to left
;
#X msg 572 178 0;
#X obj 503 179 until;
#X obj 506 215 f;
#X obj 560 220 + 1;
#X obj 454 32 bng 15 250 50 0 empty empty empty 17 7 0 10 -262144 -1
-1;
#X floatatom 508 254 5 0 0 0 - - -, f 5;
#X obj 436 291 makefilename clip/%d.wav;
#X obj 641 293 makefilename array%d;
#X obj 560 323 pack s s;
#X obj 562 391 soundfiler;
#X floatatom 561 426 5 0 0 0 - - -, f 5;
#X obj 556 470 tabwrite sampleSizeArray;
#X obj 116 81 table array1;
#X obj 15 81 table array0;
#X obj 216 81 table array2;
#X obj 15 109 table array3;
#X obj 116 109 table array4;
#X obj 217 109 table array5;
#X obj 16 137 table array6;
#X obj 117 137 table array7;
#X obj 217 137 table array8;
#X obj 14 166 table array9;
#X obj 115 166 table array10;
#X obj 215 166 table array11;
#X obj 15 199 table sampleSizeArray;
#X msg 562 356 read -maxsize 1.323e+07 \$1 \$2;
#X connect 0 0 1 0;
#X connect 1 0 3 0;
#X connect 3 0 6 0;
#X connect 3 1 5 0;
#X connect 5 0 7 1;
#X connect 6 0 7 0;
#X connect 7 0 8 0;
#X connect 7 0 10 0;
#X connect 8 0 7 1;
#X connect 9 0 1 0;
#X connect 10 0 11 0;
#X connect 10 0 12 0;
#X connect 10 0 16 1;
#X connect 11 0 13 0;
#X connect 12 0 13 1;
#X connect 13 0 30 0;
#X connect 14 0 15 0;
#X connect 15 0 16 0;
#X connect 30 0 14 0;
