#N canvas 260 190 653 352 10;
#X obj 134 61 ks-synth;
#X obj 134 14 tgl 15 0 empty empty empty 17 7 0 10 -262144 -1 -1 0
1;
#X obj 133 250 dac~;
#X obj 134 34 metro 500;
#X connect 0 0 2 0;
#X connect 0 0 2 1;
#X connect 1 0 3 0;
#X connect 3 0 0 0;
