#N canvas 65 101 1301 687 10;
#X obj 423 156 phasor~;
#X obj 422 216 *~;
#N canvas 65 53 1301 715 stereopan 0;
#X obj 304 540 *~;
#X obj 386 510 -~, f 4;
#X obj 429 547 *~;
#X obj 376 41 inlet~;
#X msg 386 457 1;
#X obj 443 383 loadbang;
#X obj 212 351 r stereo_pan;
#X obj 342 621 dac~;
#X obj 561 533 metro 100;
#X obj 633 462 tgl 15 0 empty empty empty 17 7 0 10 -262144 -1 -1 0
1;
#N canvas 0 50 450 250 (subpatch) 0;
#X array stereo_left 100 float 5;
#A 0 1.52588e-05 1.52588e-05 1.52588e-05 1.52588e-05 1.52588e-05 1.52588e-05
1.52588e-05 1.52588e-05 1.52588e-05 1.52588e-05 1.52588e-05 1.52588e-05
1.52588e-05 1.52588e-05 1.52588e-05 1.52588e-05 1.52588e-05 1.52588e-05
1.52588e-05 1.52588e-05 1.52588e-05 1.52588e-05 1.52588e-05 1.52588e-05
1.52588e-05 1.52588e-05 1.52588e-05 1.52588e-05 1.52588e-05 1.52588e-05
1.52588e-05 1.52588e-05 1.52588e-05 1.52588e-05 1.52588e-05 1.52588e-05
1.52588e-05 1.52588e-05 1.52588e-05 1.52588e-05 1.52588e-05 1.52588e-05
1.52588e-05 1.52588e-05 1.52588e-05 1.52588e-05 1.52588e-05 1.52588e-05
1.52588e-05 1.52588e-05 1.52588e-05 1.52588e-05 1.52588e-05 1.52588e-05
1.52588e-05 1.52588e-05 1.52588e-05 1.52588e-05 1.52588e-05 1.52588e-05
1.52588e-05 1.52588e-05 1.52588e-05 1.52588e-05 1.52588e-05 1.52588e-05
1.52588e-05 1.52588e-05 1.52588e-05 1.52588e-05 1.52588e-05 1.52588e-05
1.52588e-05 1.52588e-05 1.52588e-05 1.52588e-05 1.52588e-05 1.52588e-05
1.52588e-05 1.52588e-05 1.52588e-05 1.52588e-05 1.52588e-05 1.52588e-05
1.52588e-05 1.52588e-05 1.52588e-05 1.52588e-05 1.52588e-05 1.52588e-05
1.52588e-05 1.52588e-05 1.52588e-05 1.52588e-05 1.52588e-05 1.52588e-05
1.52588e-05 1.52588e-05 1.52588e-05 1.52588e-05;
#X coords 0 1 100 -1 200 140 1;
#X restore 806 51 graph;
#X obj 438 621 tabwrite~ stereo_left;
#X obj 604 622 tabwrite~ stereo_right;
#N canvas 0 50 450 250 (subpatch) 0;
#X array stereo_right 100 float 5;
#A 0 1.52588e-05 1.52588e-05 1.52588e-05 1.52588e-05 1.52588e-05 1.52588e-05
1.52588e-05 1.52588e-05 1.52588e-05 1.52588e-05 1.52588e-05 1.52588e-05
1.52588e-05 1.52588e-05 1.52588e-05 1.52588e-05 1.52588e-05 1.52588e-05
1.52588e-05 1.52588e-05 1.52588e-05 1.52588e-05 1.52588e-05 1.52588e-05
1.52588e-05 1.52588e-05 1.52588e-05 1.52588e-05 1.52588e-05 1.52588e-05
1.52588e-05 1.52588e-05 1.52588e-05 1.52588e-05 1.52588e-05 1.52588e-05
1.52588e-05 1.52588e-05 1.52588e-05 1.52588e-05 1.52588e-05 1.52588e-05
1.52588e-05 1.52588e-05 1.52588e-05 1.52588e-05 1.52588e-05 1.52588e-05
1.52588e-05 1.52588e-05 1.52588e-05 1.52588e-05 1.52588e-05 1.52588e-05
1.52588e-05 1.52588e-05 1.52588e-05 1.52588e-05 1.52588e-05 1.52588e-05
1.52588e-05 1.52588e-05 1.52588e-05 1.52588e-05 1.52588e-05 1.52588e-05
1.52588e-05 1.52588e-05 1.52588e-05 1.52588e-05 1.52588e-05 1.52588e-05
1.52588e-05 1.52588e-05 1.52588e-05 1.52588e-05 1.52588e-05 1.52588e-05
1.52588e-05 1.52588e-05 1.52588e-05 1.52588e-05 1.52588e-05 1.52588e-05
1.52588e-05 1.52588e-05 1.52588e-05 1.52588e-05 1.52588e-05 1.52588e-05
1.52588e-05 1.52588e-05 1.52588e-05 1.52588e-05 1.52588e-05 1.52588e-05
1.52588e-05 1.52588e-05 1.52588e-05 1.52588e-05;
#X coords 0 1 100 -1 200 140 1;
#X restore 1045 50 graph;
#X obj 445 41 r volume;
#X obj 377 78 *~;
#X connect 0 0 7 0;
#X connect 0 0 11 0;
#X connect 1 0 2 0;
#X connect 2 0 7 1;
#X connect 2 0 12 0;
#X connect 3 0 15 0;
#X connect 4 0 1 0;
#X connect 5 0 4 0;
#X connect 5 0 8 0;
#X connect 6 0 0 0;
#X connect 6 0 1 1;
#X connect 8 0 11 0;
#X connect 8 0 12 0;
#X connect 9 0 8 0;
#X connect 14 0 15 1;
#X connect 15 0 0 1;
#X connect 15 0 2 1;
#X restore 433 369 pd stereopan;
#N canvas 65 85 1301 687 controller 0;
#X obj 123 362 s stereo_pan;
#X obj 127 326 hsl 128 15 0 1 0 0 empty empty empty -2 -8 0 10 -262144
-1 -1 6350 1;
#X obj 563 31 loadbang;
#X msg 333 289 1;
#X obj 333 362 s volume;
#X obj 336 324 hsl 128 15 0 1 0 0 empty empty empty -2 -8 0 10 -262144
-1 -1 12700 1;
#X obj 490 324 hsl 128 15 -2 2 0 0 empty empty empty -2 -8 0 10 -262144
-1 -1 9525 1;
#X msg 487 291 1;
#X obj 487 361 s tempo;
#X text 574 304 [-2-2];
#X text 426 303 [0-1];
#X text 218 307 [0-1];
#X obj 653 335 hsl 128 15 0 360 0 0 empty empty empty -2 -8 0 10 -262130
-1 -1 9525 1;
#X obj 650 360 s azimuth;
#X obj 803 336 hsl 128 15 -40 90 0 1 empty empty empty -2 -8 0 10 -262130
-1 -1 1465 0;
#X obj 800 358 s elevation;
#X text 872 313 [-40-90];
#X text 728 316 [0-360];
#X msg 650 293 270;
#X msg 800 291 -25;
#X floatatom 225 363 5 0 0 0 - - -, f 5;
#X floatatom 407 362 5 0 0 0 - - -, f 5;
#X floatatom 567 362 5 0 0 0 - - -, f 5;
#X floatatom 733 360 5 0 0 0 - - -, f 5;
#X floatatom 898 360 5 0 0 0 - - -, f 5;
#X msg 123 287 0.5;
#X obj 970 323 s track_no;
#X msg 1062 290 0;
#X obj 1062 350 s playback_pos;
#X obj 1065 320 hsl 128 15 0 1 0 0 empty empty empty -2 -8 0 10 -262144
-1 -1 0 1;
#X text 1142 297 [0-1];
#X msg 970 291 1;
#X msg 960 169 0;
#X obj 960 203 s effect_id;
#X msg 1060 101 0;
#X obj 1060 135 s synth_id;
#X connect 1 0 0 0;
#X connect 1 0 20 0;
#X connect 2 0 25 0;
#X connect 2 0 3 0;
#X connect 2 0 7 0;
#X connect 2 0 18 0;
#X connect 2 0 19 0;
#X connect 2 0 31 0;
#X connect 2 0 27 0;
#X connect 2 0 32 0;
#X connect 2 0 34 0;
#X connect 3 0 5 0;
#X connect 5 0 4 0;
#X connect 5 0 21 0;
#X connect 6 0 8 0;
#X connect 6 0 22 0;
#X connect 7 0 6 0;
#X connect 12 0 13 0;
#X connect 12 0 23 0;
#X connect 14 0 15 0;
#X connect 14 0 24 0;
#X connect 18 0 12 0;
#X connect 19 0 14 0;
#X connect 25 0 1 0;
#X connect 27 0 29 0;
#X connect 29 0 28 0;
#X connect 31 0 26 0;
#X connect 32 0 33 0;
#X connect 34 0 35 0;
#X restore 36 42 pd controller;
#X text 35 17 Self-intializing patches;
#X text 31 163 Effect patches;
#N canvas 65 53 1301 715 loadtable 0;
#X obj 553 219 soundfiler;
#X floatatom 553 255 10 0 0 0 - - -, f 10;
#N canvas 0 50 450 250 (subpatch) 0;
#X array current 8.46835e+06 float 2;
#X coords 0 1 8.46835e+06 -1 200 140 1;
#X restore 967 63 graph;
#X obj 403 321 /;
#X obj 446 351 *~;
#X obj 471 311 r tempo;
#X obj 451 452 outlet~;
#X msg 403 285 44100;
#X obj 576 300 outlet;
#X msg 553 183 read -maxsize 1.323e+07 -resize \$1 current;
#X obj 429 153 t b s;
#X obj 463 104 inlet;
#X obj 445 399 *~;
#X obj 503 360 r start;
#X obj 636 300 s samplesize;
#X connect 0 0 1 0;
#X connect 1 0 3 1;
#X connect 1 0 8 0;
#X connect 1 0 14 0;
#X connect 3 0 4 0;
#X connect 4 0 12 0;
#X connect 5 0 4 1;
#X connect 7 0 3 0;
#X connect 9 0 0 0;
#X connect 10 0 7 0;
#X connect 10 1 9 0;
#X connect 11 0 10 0;
#X connect 12 0 6 0;
#X connect 13 0 12 1;
#X restore 473 94 pd loadtable;
#X text 866 481 Utilities;
#X obj 422 246 tabread~ current;
#N canvas 65 53 1301 715 loadtable 0;
#X obj 576 104 soundfiler;
#X floatatom 576 140 10 0 0 0 - - -, f 10;
#X msg 576 68 read -maxsize 1.323e+07 -resize \$1 current;
#N canvas 0 50 450 250 (subpatch) 0;
#X array current 7.0169e+06 float 2;
#X coords 0 1 7.0169e+06 -1 200 140 1;
#X restore 967 63 graph;
#X obj 426 206 /;
#X obj 469 236 *~;
#X obj 494 196 r tempo;
#X obj 469 277 outlet~;
#X obj 576 35 inlet;
#X obj 383 132 bng 15 250 50 0 empty empty empty 17 7 0 10 -262144
-1 -1;
#X msg 400 175 44100;
#X connect 0 0 1 0;
#X connect 1 0 4 1;
#X connect 2 0 0 0;
#X connect 4 0 5 0;
#X connect 5 0 7 0;
#X connect 6 0 5 1;
#X connect 8 0 2 0;
#X connect 9 0 10 0;
#X connect 10 0 4 0;
#X restore 869 505 pd loadtable;
#X obj 555 15 r track_no;
#X obj 344 51 s start;
#X obj 344 20 tgl 15 0 empty empty empty 17 7 0 10 -262144 -1 -1 0
1;
#X text 280 73 0 to pause \, 1 to play;
#X obj 562 130 r playback_pos;
#X obj 556 206 hsl 128 15 0 1 0 0 empty empty empty -2 -8 0 10 -262144
-1 -1 0 1;
#N canvas 65 53 1301 715 visualize_playback 0;
#X obj 484 156 snapshot~;
#X obj 484 86 loadbang;
#X obj 484 198 outlet;
#X obj 424 122 inlet~;
#X obj 575 81 tgl 15 0 empty empty empty 17 7 0 10 -262144 -1 -1 0
1;
#X obj 484 121 metro 1000;
#X connect 0 0 2 0;
#X connect 1 0 5 0;
#X connect 3 0 0 0;
#X connect 4 0 5 0;
#X connect 5 0 0 0;
#X restore 553 176 pd visualize_playback;
#N canvas 65 53 1301 715 effect_controller 0;
#X obj 532 11 loadbang;
#X msg 33 60 10;
#X obj 33 125 vsl 15 128 1 5 0 0 empty empty empty 0 -9 0 10 -262144
-1 -1 12700 1;
#X msg 83 63 10;
#X obj 83 98 vsl 15 128 1 5 0 0 empty empty empty 0 -9 0 10 -262144
-1 -1 12700 1;
#X obj 33 275 s vibrato_freq;
#X obj 83 248 s vibrato_delay;
#X obj 210 162 vsl 15 128 0.5 25 0 0 empty empty empty 0 -9 0 10 -262144
-1 -1 4924 1;
#X obj 257 128 vsl 15 128 1 20 0 0 empty empty empty 0 -9 0 10 -262144
-1 -1 9358 1;
#X msg 257 93 15;
#X obj 310 99 vsl 15 128 0 0.5 0 0 empty empty empty 0 -9 0 10 -262144
-1 -1 7620 1;
#X obj 210 312 s tremolo_freq;
#X obj 257 278 s tremolo_gain;
#X obj 310 249 s tremolo_depth;
#X msg 310 64 0.3;
#X msg 210 96 10;
#X obj 386 423 vsl 15 128 50 500 0 0 empty empty empty 0 -9 0 10 -262144
-1 -1 2822 1;
#X msg 386 388 150;
#X obj 386 573 s delay_length;
#X obj 429 389 vsl 15 128 0 0.8 0 0 empty empty empty 0 -9 0 10 -262144
-1 -1 9525 1;
#X obj 429 539 s delay_feedback;
#X msg 430 354 0.6;
#X obj 498 346 vsl 15 128 700 6000 0 0 empty empty empty 0 -9 0 10
-262144 -1 -1 5511 1;
#X obj 498 496 s wha_maxfreq;
#X obj 547 316 vsl 15 128 0 700 0 0 empty empty empty 0 -9 0 10 -262144
-1 -1 9071 1;
#X obj 547 466 s wha_minfreq;
#X msg 499 311 3000;
#X msg 548 282 500;
#X obj 607 285 vsl 15 128 0 20 0 0 empty empty empty 0 -9 0 10 -262144
-1 -1 3366 1;
#X obj 607 435 s wha_q;
#X msg 608 250 5.3;
#X obj 711 437 vsl 15 128 0.4 0.8 0 0 empty empty empty 0 -9 0 10 -262144
-1 -1 3175 1;
#X obj 711 597 s distortion_clip;
#X msg 712 402 0.5;
#X obj 760 382 vsl 15 128 1 20 0 0 empty empty empty 0 -9 0 10 -262144
-1 -1 6016 1;
#X obj 760 542 s distortion_gain;
#X msg 761 347 10;
#X obj 816 330 vsl 15 128 0 10 0 0 empty empty empty 0 -9 0 10 -262144
-1 -1 889 1;
#X obj 816 490 s phaser_speed;
#X obj 861 296 vsl 15 128 0 3 0 0 empty empty empty 0 -9 0 10 -262144
-1 -1 10160 1;
#X msg 817 295 0.7;
#X obj 861 456 s phaser_depth;
#X msg 862 261 2.4;
#X obj 912 239 vsl 15 128 -0.9 0.9 0 0 empty empty empty 0 -9 0 10
-262144 -1 -1 4233 1;
#X msg 913 204 -0.3;
#X obj 912 399 s phaser_feedback;
#X obj 962 122 vsl 15 128 0 100 0 0 empty empty empty 0 -9 0 10 -262144
-1 -1 6350 1;
#X obj 962 282 s reverb_gain;
#X msg 963 87 50;
#X floatatom 375 213 5 0 0 0 - - -, f 5;
#X floatatom 187 347 5 0 0 0 - - -, f 5;
#X floatatom 337 303 5 0 0 0 - - -, f 5;
#X connect 0 0 3 0;
#X connect 0 0 1 0;
#X connect 0 0 15 0;
#X connect 0 0 9 0;
#X connect 0 0 14 0;
#X connect 0 0 17 0;
#X connect 0 0 21 0;
#X connect 0 0 26 0;
#X connect 0 0 27 0;
#X connect 0 0 30 0;
#X connect 0 0 33 0;
#X connect 0 0 36 0;
#X connect 0 0 40 0;
#X connect 0 0 42 0;
#X connect 0 0 44 0;
#X connect 0 0 48 0;
#X connect 1 0 2 0;
#X connect 2 0 5 0;
#X connect 3 0 4 0;
#X connect 4 0 6 0;
#X connect 7 0 11 0;
#X connect 7 0 50 0;
#X connect 8 0 12 0;
#X connect 8 0 51 0;
#X connect 9 0 8 0;
#X connect 10 0 13 0;
#X connect 10 0 49 0;
#X connect 14 0 10 0;
#X connect 15 0 7 0;
#X connect 16 0 18 0;
#X connect 17 0 16 0;
#X connect 19 0 20 0;
#X connect 21 0 19 0;
#X connect 22 0 23 0;
#X connect 24 0 25 0;
#X connect 26 0 22 0;
#X connect 27 0 24 0;
#X connect 28 0 29 0;
#X connect 30 0 28 0;
#X connect 31 0 32 0;
#X connect 33 0 31 0;
#X connect 34 0 35 0;
#X connect 36 0 34 0;
#X connect 37 0 38 0;
#X connect 39 0 41 0;
#X connect 40 0 37 0;
#X connect 42 0 39 0;
#X connect 43 0 45 0;
#X connect 44 0 43 0;
#X connect 46 0 47 0;
#X connect 48 0 46 0;
#X restore 35 73 pd effect_controller;
#N canvas 65 53 1301 715 effect_patches 0;
#N canvas 65 53 1301 715 vibrato 0;
#X obj 448 412 vd~ vibrato;
#X obj 447 366 *~ 1;
#X obj 559 235 vsl 15 128 1 5 0 0 empty empty empty 0 -9 0 10 -262144
-1 -1 12700 1;
#X obj 448 388 +~ 2;
#X obj 492 63 delwrite~ vibrato 50;
#X obj 448 325 osc~ 2;
#X obj 447 179 vsl 15 128 1 5 0 0 empty empty empty 0 -9 0 10 -262144
-1 -1 12700 1;
#X floatatom 602 419 5 0 0 0 - - -, f 5;
#X obj 602 397 +;
#X obj 559 371 * 2;
#X floatatom 490 303 5 0 0 0 - - -, f 5;
#X text 639 420 <-- Maximum length of the delay line (= added latency!)
;
#X text 587 304 <-- Depth (change the length of the delay line);
#X text 462 143 <-- Speed (frequency of the LFO);
#X text 568 486 Pierre Massat \, GuitarExtended \, 2012;
#X obj 491 18 inlet~;
#X obj 448 506 outlet~;
#X obj 447 119 r vibrato_freq;
#X obj 559 196 r vibrato_delay;
#X obj 898 223 switch~;
#X obj 898 138 r effect_id;
#X obj 898 176 == 1;
#X connect 0 0 16 0;
#X connect 1 0 3 0;
#X connect 2 0 1 1;
#X connect 2 0 8 1;
#X connect 2 0 9 0;
#X connect 3 0 0 0;
#X connect 5 0 1 0;
#X connect 6 0 5 0;
#X connect 6 0 10 0;
#X connect 8 0 7 0;
#X connect 9 0 3 1;
#X connect 9 0 8 0;
#X connect 15 0 4 0;
#X connect 17 0 6 0;
#X connect 18 0 2 0;
#X connect 20 0 21 0;
#X connect 21 0 19 0;
#X restore 115 238 pd vibrato;
#N canvas 65 53 1301 715 tremolo 0;
#X obj 241 80 osc~;
#X obj 242 146 *~;
#X obj 242 197 clip~ -1 1;
#X obj 134 306 *~;
#X obj 299 122 hsl 128 15 1 20 1 0 empty empty empty -2 -8 0 10 -262144
-1 -1 11480 1;
#X obj 244 52 hsl 128 15 0.5 25 0 0 empty empty empty -2 -8 0 10 -262144
-1 -1 4924 1;
#X text 281 146 <-- Multipled by a positive number X;
#X text 303 160 (between -X and X);
#X text 313 197 <-- Trim at -1 and 1;
#X text 336 225 a square wave as X increases);
#X text 336 211 (the sine wave tends to become;
#X text 382 296 <-- Normalize between 0 and 1;
#X text 351 17 Frequency of the oscillator;
#X text 406 90 Number X (between 1 and 20 \, log);
#X obj 242 280 *~;
#X obj 242 309 +~;
#X obj 322 263 hsl 128 15 0 0.5 0 0 empty empty empty -2 -8 0 10 -262144
-1 -1 7620 1;
#X floatatom 319 282 5 0 0 0 - - -, f 5;
#X obj 305 309 expr 1-$f1;
#X floatatom 305 331 5 0 0 0 - - -, f 5;
#X text 405 308 and adjust depth;
#X text 546 17 ("Rate");
#X text 638 90 ("Shape");
#X text 461 261 "Depth";
#X obj 133 54 inlet~;
#X obj 126 348 outlet~, f 12;
#X obj 241 20 r tremolo_freq;
#X obj 296 90 r tremolo_gain;
#X obj 311 240 r tremolo_depth;
#X obj 898 223 switch~;
#X obj 898 138 r effect_id;
#X obj 898 176 == 2;
#X connect 0 0 1 0;
#X connect 1 0 2 0;
#X connect 2 0 14 0;
#X connect 3 0 25 0;
#X connect 4 0 1 1;
#X connect 5 0 0 0;
#X connect 14 0 15 0;
#X connect 15 0 3 1;
#X connect 16 0 17 0;
#X connect 16 0 14 1;
#X connect 16 0 18 0;
#X connect 18 0 15 1;
#X connect 18 0 19 0;
#X connect 24 0 3 0;
#X connect 26 0 5 0;
#X connect 27 0 4 0;
#X connect 28 0 16 0;
#X connect 30 0 31 0;
#X connect 31 0 29 0;
#X restore 204 238 pd tremolo;
#N canvas 65 53 1301 715 delay 0;
#X obj 125 12 inlet~;
#X obj 153 214 outlet~;
#X obj 152 37 delwrite~ echo1 500;
#X obj 304 146 r delay_length;
#X obj 267 182 delread~ echo1;
#X obj 298 105 *~;
#X obj 499 24 r delay_feedback;
#X obj 502 66 hsl 128 15 0 0.8 0 0 empty empty empty -2 -8 0 10 -262144
-1 -1 9525 1;
#X obj 898 223 switch~;
#X obj 898 138 r effect_id;
#X obj 898 176 == 3;
#X connect 0 0 2 0;
#X connect 3 0 4 0;
#X connect 4 0 1 0;
#X connect 4 0 5 0;
#X connect 5 0 2 0;
#X connect 6 0 7 0;
#X connect 7 0 5 1;
#X connect 9 0 10 0;
#X connect 10 0 8 0;
#X restore 300 239 pd delay;
#N canvas 65 53 1301 715 whaauto 0;
#X obj 417 493 vcf~;
#X floatatom 508 457 5 0 0 0 - - -, f 5;
#X obj 508 324 vsl 15 128 0 20 0 0 empty empty empty 0 -9 0 10 -262144
-1 -1 3366 1;
#X obj 483 135 +~ 1;
#X obj 484 156 *~ 0.5;
#X obj 483 114 osc~ 2;
#X obj 585 191 hsl 128 15 700 6000 0 0 empty empty empty -2 -8 0 10
-262144 -1 -1 5511 1;
#X obj 537 259 hsl 128 15 0 700 0 0 empty empty empty -2 -8 0 10 -262144
-1 -1 9071 1;
#X floatatom 536 283 6 0 0 0 - - -, f 6;
#X floatatom 537 225 6 0 0 0 - - -, f 6;
#X obj 537 206 -;
#X obj 537 184 bang;
#X obj 437 290 +~ 200;
#X obj 436 208 *~ 1500;
#X text 534 131 <-- LFO (Low-Frequency Oscillator;
#X text 725 196 <-- Maximum of the freq. range;
#X text 672 261 <-- Minimum of the freq. range;
#X text 545 414 <-- "Q";
#X text 456 494 <-- Voltage-Controlled band-pass filter;
#X text 669 541 Pierre Massat \, GuitarExtended \, 2012.s;
#X obj 416 96 inlet~;
#X obj 411 528 outlet~;
#X obj 591 163 r wha_maxfreq;
#X obj 597 231 r wha_minfreq;
#X obj 585 304 r wha_q;
#X obj 1015 184 switch~;
#X obj 1015 99 r effect_id;
#X obj 1015 137 == 4;
#X connect 0 0 21 0;
#X connect 2 0 1 0;
#X connect 2 0 0 2;
#X connect 3 0 4 0;
#X connect 4 0 13 0;
#X connect 5 0 3 0;
#X connect 6 0 10 0;
#X connect 7 0 8 0;
#X connect 7 0 10 1;
#X connect 7 0 11 0;
#X connect 7 0 12 1;
#X connect 10 0 9 0;
#X connect 10 0 13 1;
#X connect 11 0 10 0;
#X connect 12 0 0 1;
#X connect 13 0 12 0;
#X connect 20 0 0 0;
#X connect 22 0 6 0;
#X connect 23 0 7 0;
#X connect 24 0 2 0;
#X connect 26 0 27 0;
#X connect 27 0 25 0;
#X restore 387 239 pd whaauto;
#N canvas 65 53 1301 715 phaser 0;
#X obj 500 15 hsl 128 15 0 10 0 0 empty empty empty -2 -8 0 10 -262144
-1 -1 889 1;
#X obj 338 122 *~ 2;
#X obj 338 142 +~ 2;
#X obj 377 164 *~ 2;
#X obj 376 187 +~ 2;
#X obj 124 96 delwrite~ phase2 100;
#X obj 376 213 vd~ phase2;
#X obj 377 120 wrap~;
#X obj 347 65 phasor~;
#X obj 376 99 +~ 0.5;
#X obj 338 99 cos~;
#X obj 377 140 cos~;
#X obj 503 112 hsl 128 15 0 3 0 0 empty empty empty -2 -8 0 10 -262144
-1 -1 10160 1;
#X obj 376 236 *~ 0.8;
#X obj 338 297 *~ 0.8;
#X obj 447 324 s~ output;
#X obj 111 282 r~ output;
#X obj 532 231 hsl 128 15 -0.9 0.9 0 0 empty empty empty -2 -8 0 10
-262144 -1 -1 4233 1;
#X text 252 30 <-- Write to delay lines;
#X text 427 186 <-- Read from delay line 2;
#X text 442 274 <-- Read from delay line 1;
#X obj 339 274 vd~ phase1;
#X obj 125 36 delwrite~ phase1 100;
#X text 410 65 <-- Low Frequency Oscillator (LFO);
#X floatatom 497 39 5 0 0 0 - - -, f 5;
#X floatatom 501 138 5 0 0 0 - - -, f 5;
#X floatatom 529 252 5 0 0 0 - - -, f 5;
#X text 640 11 <-- Speed (try 0.7);
#X text 645 110 <-- Depth (try 2.4);
#X text 672 231 <-- Feedback (try -0.3);
#X text 443 405 comment;
#X obj 80 -71 inlet~;
#X obj 79 322 outlet~;
#X obj 496 -20 r phaser_speed;
#X obj 504 85 r phaser_depth;
#X obj 633 200 r phaser_feedback;
#X obj 898 223 switch~;
#X obj 898 138 r effect_id;
#X obj 898 177 == 5;
#X connect 0 0 8 0;
#X connect 0 0 24 0;
#X connect 1 0 2 0;
#X connect 2 0 21 0;
#X connect 3 0 4 0;
#X connect 4 0 6 0;
#X connect 6 0 13 0;
#X connect 6 0 15 0;
#X connect 7 0 11 0;
#X connect 8 0 9 0;
#X connect 8 0 10 0;
#X connect 9 0 7 0;
#X connect 10 0 1 0;
#X connect 11 0 3 0;
#X connect 12 0 1 1;
#X connect 12 0 3 1;
#X connect 12 0 2 1;
#X connect 12 0 4 1;
#X connect 12 0 25 0;
#X connect 13 0 5 0;
#X connect 14 0 22 0;
#X connect 16 0 32 0;
#X connect 17 0 14 1;
#X connect 17 0 13 1;
#X connect 17 0 26 0;
#X connect 21 0 14 0;
#X connect 21 0 15 0;
#X connect 31 0 5 0;
#X connect 31 0 22 0;
#X connect 31 0 32 0;
#X connect 33 0 0 0;
#X connect 34 0 12 0;
#X connect 35 0 17 0;
#X connect 37 0 38 0;
#X connect 38 0 36 0;
#X restore 480 237 pd phaser;
#N canvas 65 53 1301 715 reverb 0;
#X obj 13 19 inlet~;
#X obj 13 43 reverb-echo echo-del1 5.43216;
#X obj 277 215 +~;
#X obj 319 215 +~;
#X obj 67 276 outlet~;
#X obj 137 276 outlet~;
#X obj 238 334 +~;
#X obj 347 335 +~;
#X obj 280 334 -~;
#X obj 387 334 -~;
#X obj 237 390 +~;
#X obj 281 391 +~;
#X obj 325 392 -~;
#X obj 364 392 -~;
#X obj 324 474 *~ 0;
#X obj 282 473 *~ 0;
#X obj 237 472 *~ 0;
#X obj 365 475 *~ 0;
#X obj 632 437 / 200;
#X obj 632 389 min 100;
#X obj 632 412 max 0;
#X obj 238 583 delwrite~ loop-del1 60;
#X obj 283 561 delwrite~ loop-del2 71.9345;
#X obj 364 515 delwrite~ loop-del4 95.945;
#X obj 298 154 delread~ loop-del1 60;
#X obj 340 179 delread~ loop-del2 71.9345;
#X obj 408 233 delread~ loop-del4 95.945;
#X obj 386 208 delread~ loop-del3 86.7545;
#X obj 325 538 delwrite~ loop-del3 86.7545;
#X obj 13 67 reverb-echo echo-del2 8.45346;
#X obj 13 91 reverb-echo echo-del3 13.4367;
#X obj 13 115 reverb-echo echo-del4 21.5463;
#X obj 13 139 reverb-echo echo-del5 34.3876;
#X obj 13 163 reverb-echo echo-del6 55.5437;
#X text 286 42 "early echo" generators \, which also increase echo
density. Open one to see what they do.;
#X text 300 115 Get the outputs of the recirculating delays. Add the
inputs to two of them.;
#X text 420 313 Do a power-conserving mix of them in pairs. First combine
(1 \, 2) and (3 \, 4)...;
#X text 402 385 ...then (1 \, 3) and (2 \, 4);
#X text 446 469 The two mixing stages have a combined gain of 2 \,
so the recirculation gain is limited to 0.5.;
#X text 586 542 Put the signals back into the;
#X text 584 557 recirculating delays.;
#X text 29 296 Tap outputs from here.;
#X text 708 381 0 to 100 to control reverb;
#X text 719 396 time.;
#X text 691 364 feedback gain on a scale of;
#X obj 584 345 r reverb_gain;
#X obj 898 223 switch~;
#X obj 898 138 r effect_id;
#X obj 898 176 == 6;
#X connect 0 0 1 0;
#X connect 1 0 29 0;
#X connect 1 1 29 1;
#X connect 2 0 4 0;
#X connect 2 0 6 0;
#X connect 2 0 8 0;
#X connect 3 0 5 0;
#X connect 3 0 6 1;
#X connect 3 0 8 1;
#X connect 6 0 10 0;
#X connect 6 0 12 0;
#X connect 7 0 12 1;
#X connect 7 0 10 1;
#X connect 8 0 11 0;
#X connect 8 0 13 0;
#X connect 9 0 11 1;
#X connect 9 0 13 1;
#X connect 10 0 16 0;
#X connect 11 0 15 0;
#X connect 12 0 14 0;
#X connect 13 0 17 0;
#X connect 14 0 28 0;
#X connect 15 0 22 0;
#X connect 16 0 21 0;
#X connect 17 0 23 0;
#X connect 18 0 17 1;
#X connect 18 0 16 1;
#X connect 18 0 15 1;
#X connect 18 0 14 1;
#X connect 19 0 20 0;
#X connect 20 0 18 0;
#X connect 24 0 2 1;
#X connect 25 0 3 1;
#X connect 26 0 7 1;
#X connect 26 0 9 1;
#X connect 27 0 7 0;
#X connect 27 0 9 0;
#X connect 29 0 30 0;
#X connect 29 1 30 1;
#X connect 30 0 31 0;
#X connect 30 1 31 1;
#X connect 31 0 32 0;
#X connect 31 1 32 1;
#X connect 32 0 33 0;
#X connect 32 1 33 1;
#X connect 33 0 2 0;
#X connect 33 1 3 0;
#X connect 45 0 19 0;
#X connect 47 0 48 0;
#X connect 48 0 46 0;
#X restore 576 230 pd reverb;
#X obj 413 28 inlet~;
#X obj 413 463 outlet~, f 18;
#X connect 0 0 7 0;
#X connect 1 0 7 0;
#X connect 2 0 7 0;
#X connect 3 0 7 0;
#X connect 4 0 7 0;
#X connect 5 0 7 0;
#X connect 5 1 7 0;
#X connect 6 0 0 0;
#X connect 6 0 1 0;
#X connect 6 0 2 0;
#X connect 6 0 3 0;
#X connect 6 0 4 0;
#X connect 6 0 5 0;
#X restore 421 306 pd effect_patches;
#X text 30 242 Synthesis patches;
#N canvas 65 53 1301 715 earplug 0;
#X msg 442 207 0 \, 360 5000;
#X obj 235 348 earplug~ 270 -25;
#X obj 440 85 line 0 1;
#X obj 440 62 pack 0 50;
#X obj 441 175 line 0 1;
#X obj 441 152 pack 0 50;
#X msg 444 264 0 \, 360 5000;
#X obj 444 289 line 0 1;
#X obj 442 232 line 0 50;
#X text 518 263 <---a better circle;
#X text 517 207 <--- circle with noise;
#X text 440 314 avoid zipper noise: uase small line grain;
#X obj 216 178 inlet~;
#X obj 440 29 r azimuth;
#X obj 441 121 r elevation;
#X obj 237 408 *~ 5;
#X obj 321 397 *~ 5;
#X obj 284 490 dac~;
#X connect 0 0 8 0;
#X connect 1 0 15 0;
#X connect 1 1 16 0;
#X connect 2 0 1 1;
#X connect 3 0 2 0;
#X connect 4 0 1 2;
#X connect 5 0 4 0;
#X connect 6 0 7 0;
#X connect 7 0 1 1;
#X connect 8 0 1 1;
#X connect 12 0 1 0;
#X connect 13 0 3 0;
#X connect 14 0 5 0;
#X connect 15 0 17 0;
#X connect 16 0 17 1;
#X restore 870 453 pd earplug;
#X text 866 427 Binaural;
#N canvas 65 53 1301 715 normal 0;
#X obj 200 81 inlet~;
#X obj 199 137 outlet~;
#X obj 292 156 switch~;
#X obj 287 56 r effect_id;
#X obj 287 94 == 0;
#X obj 384 91 == 0;
#X obj 403 49 r synth_id;
#X connect 0 0 1 0;
#X connect 3 0 4 0;
#X connect 4 0 2 0;
#X connect 5 0 2 0;
#X connect 6 0 5 0;
#X restore 600 314 pd normal;
#X text 870 537 Examples;
#N canvas 65 53 1301 715 sending_list 0;
#X msg 597 248 list mother 1 1 2;
#X obj 606 303 s mari;
#X obj 532 240 bng 15 250 50 0 empty empty empty 17 7 0 10 -262144
-1 -1;
#X obj 467 279 r mari;
#X obj 480 341 print;
#X connect 0 0 1 0;
#X connect 2 0 0 0;
#X connect 3 0 4 0;
#X restore 868 563 pd sending_list;
#X obj 1009 139 s effect_id;
#X msg 1079 82 0;
#X obj 1013 222 s synth_id;
#X msg 1013 177 0;
#X obj 1030 329 metro 100;
#X obj 1030 362 tabwrite~ normal;
#N canvas 0 50 450 250 (subpatch) 0;
#X array normal 100 float 5;
#A 0 0 0 0 0 0 0 0 0 0 0 0 0 0 0 0 0 0 0 0 0 0 0 0 0 0 0 0 0 0 0 0
0 0 0 0 0 0 0 0 0 0 0 0 0 0 0 0 0 0 0 0 0 0 0 0 0 0 0 0 0 0 0 0 0 0
0 0 0 0 0 0 0 0 0 0 0 0 0 0 0 0 0 0 0 0 0 0 0 0 0 0 0 0 0 0 0 0 0 0
0;
#X coords 0 1 100 -1 200 140 1;
#X restore 1033 430 graph;
#X obj 1030 298 loadbang;
#X text 1010 34 Master control;
#X msg 1063 175 3;
#X msg 555 57 symbol \$1.wav;
#N canvas 65 53 1301 715 effect_patches 0;
#N canvas 65 53 1301 715 vibrato 0;
#X obj 448 412 vd~ vibrato;
#X obj 447 366 *~ 1;
#X obj 559 235 vsl 15 128 1 5 0 0 empty empty empty 0 -9 0 10 -262144
-1 -1 12700 1;
#X obj 448 388 +~ 2;
#X obj 492 63 delwrite~ vibrato 50;
#X obj 448 325 osc~ 2;
#X obj 447 179 vsl 15 128 1 5 0 0 empty empty empty 0 -9 0 10 -262144
-1 -1 12700 1;
#X floatatom 602 419 5 0 0 0 - - -, f 5;
#X obj 602 397 +;
#X obj 559 371 * 2;
#X floatatom 490 303 5 0 0 0 - - -, f 5;
#X text 639 420 <-- Maximum length of the delay line (= added latency!)
;
#X text 587 304 <-- Depth (change the length of the delay line);
#X text 462 143 <-- Speed (frequency of the LFO);
#X text 568 486 Pierre Massat \, GuitarExtended \, 2012;
#X obj 491 18 inlet~;
#X obj 448 506 outlet~;
#X obj 447 119 r vibrato_freq;
#X obj 559 196 r vibrato_delay;
#X obj 898 223 switch~;
#X obj 898 138 r effect_id;
#X obj 898 176 == 1;
#X connect 0 0 16 0;
#X connect 1 0 3 0;
#X connect 2 0 1 1;
#X connect 2 0 8 1;
#X connect 2 0 9 0;
#X connect 3 0 0 0;
#X connect 5 0 1 0;
#X connect 6 0 5 0;
#X connect 6 0 10 0;
#X connect 8 0 7 0;
#X connect 9 0 3 1;
#X connect 9 0 8 0;
#X connect 15 0 4 0;
#X connect 17 0 6 0;
#X connect 18 0 2 0;
#X connect 20 0 21 0;
#X connect 21 0 19 0;
#X restore 115 238 pd vibrato;
#N canvas 65 53 1301 715 tremolo 0;
#X obj 241 80 osc~;
#X obj 242 146 *~;
#X obj 242 197 clip~ -1 1;
#X obj 134 306 *~;
#X obj 299 122 hsl 128 15 1 20 1 0 empty empty empty -2 -8 0 10 -262144
-1 -1 11480 1;
#X obj 244 52 hsl 128 15 0.5 25 0 0 empty empty empty -2 -8 0 10 -262144
-1 -1 4924 1;
#X text 281 146 <-- Multipled by a positive number X;
#X text 303 160 (between -X and X);
#X text 313 197 <-- Trim at -1 and 1;
#X text 336 225 a square wave as X increases);
#X text 336 211 (the sine wave tends to become;
#X text 382 296 <-- Normalize between 0 and 1;
#X text 351 17 Frequency of the oscillator;
#X text 406 90 Number X (between 1 and 20 \, log);
#X obj 242 280 *~;
#X obj 242 309 +~;
#X obj 322 263 hsl 128 15 0 0.5 0 0 empty empty empty -2 -8 0 10 -262144
-1 -1 7620 1;
#X floatatom 319 282 5 0 0 0 - - -, f 5;
#X obj 305 309 expr 1-$f1;
#X floatatom 305 331 5 0 0 0 - - -, f 5;
#X text 405 308 and adjust depth;
#X text 546 17 ("Rate");
#X text 638 90 ("Shape");
#X text 461 261 "Depth";
#X obj 133 54 inlet~;
#X obj 126 348 outlet~, f 12;
#X obj 241 20 r tremolo_freq;
#X obj 296 90 r tremolo_gain;
#X obj 311 240 r tremolo_depth;
#X obj 898 223 switch~;
#X obj 898 138 r effect_id;
#X obj 898 176 == 2;
#X connect 0 0 1 0;
#X connect 1 0 2 0;
#X connect 2 0 14 0;
#X connect 3 0 25 0;
#X connect 4 0 1 1;
#X connect 5 0 0 0;
#X connect 14 0 15 0;
#X connect 15 0 3 1;
#X connect 16 0 17 0;
#X connect 16 0 14 1;
#X connect 16 0 18 0;
#X connect 18 0 15 1;
#X connect 18 0 19 0;
#X connect 24 0 3 0;
#X connect 26 0 5 0;
#X connect 27 0 4 0;
#X connect 28 0 16 0;
#X connect 30 0 31 0;
#X connect 31 0 29 0;
#X restore 204 238 pd tremolo;
#N canvas 65 53 1301 715 delay 0;
#X obj 125 12 inlet~;
#X obj 153 214 outlet~;
#X obj 152 37 delwrite~ echo1 500;
#X obj 304 146 r delay_length;
#X obj 267 182 delread~ echo1;
#X obj 298 105 *~;
#X obj 499 24 r delay_feedback;
#X obj 502 66 hsl 128 15 0 0.8 0 0 empty empty empty -2 -8 0 10 -262144
-1 -1 9525 1;
#X obj 898 223 switch~;
#X obj 898 138 r effect_id;
#X obj 898 176 == 3;
#X connect 0 0 2 0;
#X connect 3 0 4 0;
#X connect 4 0 1 0;
#X connect 4 0 5 0;
#X connect 5 0 2 0;
#X connect 6 0 7 0;
#X connect 7 0 5 1;
#X connect 9 0 10 0;
#X connect 10 0 8 0;
#X restore 300 239 pd delay;
#N canvas 65 53 1301 715 whaauto 0;
#X obj 417 493 vcf~;
#X floatatom 508 457 5 0 0 0 - - -, f 5;
#X obj 508 324 vsl 15 128 0 20 0 0 empty empty empty 0 -9 0 10 -262144
-1 -1 3366 1;
#X obj 483 135 +~ 1;
#X obj 484 156 *~ 0.5;
#X obj 483 114 osc~ 2;
#X obj 585 191 hsl 128 15 700 6000 0 0 empty empty empty -2 -8 0 10
-262144 -1 -1 5511 1;
#X obj 537 259 hsl 128 15 0 700 0 0 empty empty empty -2 -8 0 10 -262144
-1 -1 9071 1;
#X floatatom 536 283 6 0 0 0 - - -, f 6;
#X floatatom 537 225 6 0 0 0 - - -, f 6;
#X obj 537 206 -;
#X obj 537 184 bang;
#X obj 437 290 +~ 200;
#X obj 436 208 *~ 1500;
#X text 534 131 <-- LFO (Low-Frequency Oscillator;
#X text 725 196 <-- Maximum of the freq. range;
#X text 672 261 <-- Minimum of the freq. range;
#X text 545 414 <-- "Q";
#X text 456 494 <-- Voltage-Controlled band-pass filter;
#X text 669 541 Pierre Massat \, GuitarExtended \, 2012.s;
#X obj 416 96 inlet~;
#X obj 411 528 outlet~;
#X obj 591 163 r wha_maxfreq;
#X obj 597 231 r wha_minfreq;
#X obj 585 304 r wha_q;
#X obj 1015 184 switch~;
#X obj 1015 99 r effect_id;
#X obj 1015 137 == 4;
#X connect 0 0 21 0;
#X connect 2 0 1 0;
#X connect 2 0 0 2;
#X connect 3 0 4 0;
#X connect 4 0 13 0;
#X connect 5 0 3 0;
#X connect 6 0 10 0;
#X connect 7 0 8 0;
#X connect 7 0 10 1;
#X connect 7 0 11 0;
#X connect 7 0 12 1;
#X connect 10 0 9 0;
#X connect 10 0 13 1;
#X connect 11 0 10 0;
#X connect 12 0 0 1;
#X connect 13 0 12 0;
#X connect 20 0 0 0;
#X connect 22 0 6 0;
#X connect 23 0 7 0;
#X connect 24 0 2 0;
#X connect 26 0 27 0;
#X connect 27 0 25 0;
#X restore 387 239 pd whaauto;
#N canvas 65 53 1301 715 distortion 0;
#X obj 426 136 inlet~;
#X obj 438 243 clip~ -0.5 0.5;
#X obj 440 290 outlet~;
#X obj 557 147 r distortion_clip;
#X obj 498 193 * -1;
#X obj 441 200 *~;
#X obj 502 120 r distortion_gain;
#X obj 898 223 switch~;
#X obj 898 138 r effect_id;
#X obj 898 176 == 5;
#X connect 0 0 5 0;
#X connect 1 0 2 0;
#X connect 3 0 1 2;
#X connect 3 0 4 0;
#X connect 4 0 1 1;
#X connect 5 0 1 0;
#X connect 6 0 5 1;
#X connect 8 0 9 0;
#X connect 9 0 7 0;
#X restore 915 153 pd distortion;
#N canvas 65 53 1301 715 phaser 0;
#X obj 500 15 hsl 128 15 0 10 0 0 empty empty empty -2 -8 0 10 -262144
-1 -1 889 1;
#X obj 338 122 *~ 2;
#X obj 338 142 +~ 2;
#X obj 377 164 *~ 2;
#X obj 376 187 +~ 2;
#X obj 124 96 delwrite~ phase2 100;
#X obj 376 213 vd~ phase2;
#X obj 377 120 wrap~;
#X obj 347 65 phasor~;
#X obj 376 99 +~ 0.5;
#X obj 338 99 cos~;
#X obj 377 140 cos~;
#X obj 503 112 hsl 128 15 0 3 0 0 empty empty empty -2 -8 0 10 -262144
-1 -1 10160 1;
#X obj 376 236 *~ 0.8;
#X obj 338 297 *~ 0.8;
#X obj 447 324 s~ output;
#X obj 111 282 r~ output;
#X obj 532 231 hsl 128 15 -0.9 0.9 0 0 empty empty empty -2 -8 0 10
-262144 -1 -1 4233 1;
#X text 252 30 <-- Write to delay lines;
#X text 427 186 <-- Read from delay line 2;
#X text 442 274 <-- Read from delay line 1;
#X obj 339 274 vd~ phase1;
#X obj 125 36 delwrite~ phase1 100;
#X text 410 65 <-- Low Frequency Oscillator (LFO);
#X floatatom 497 39 5 0 0 0 - - -, f 5;
#X floatatom 501 138 5 0 0 0 - - -, f 5;
#X floatatom 529 252 5 0 0 0 - - -, f 5;
#X text 640 11 <-- Speed (try 0.7);
#X text 645 110 <-- Depth (try 2.4);
#X text 672 231 <-- Feedback (try -0.3);
#X text 443 405 comment;
#X obj 80 -71 inlet~;
#X obj 79 322 outlet~;
#X obj 496 -20 r phaser_speed;
#X obj 504 85 r phaser_depth;
#X obj 633 200 r phaser_feedback;
#X obj 898 223 switch~;
#X obj 898 138 r effect_id;
#X obj 898 176 == 5;
#X connect 0 0 8 0;
#X connect 0 0 24 0;
#X connect 1 0 2 0;
#X connect 2 0 21 0;
#X connect 3 0 4 0;
#X connect 4 0 6 0;
#X connect 6 0 13 0;
#X connect 6 0 15 0;
#X connect 7 0 11 0;
#X connect 8 0 9 0;
#X connect 8 0 10 0;
#X connect 9 0 7 0;
#X connect 10 0 1 0;
#X connect 11 0 3 0;
#X connect 12 0 1 1;
#X connect 12 0 3 1;
#X connect 12 0 2 1;
#X connect 12 0 4 1;
#X connect 12 0 25 0;
#X connect 13 0 5 0;
#X connect 14 0 22 0;
#X connect 16 0 32 0;
#X connect 17 0 14 1;
#X connect 17 0 13 1;
#X connect 17 0 26 0;
#X connect 21 0 14 0;
#X connect 21 0 15 0;
#X connect 31 0 5 0;
#X connect 31 0 22 0;
#X connect 31 0 32 0;
#X connect 33 0 0 0;
#X connect 34 0 12 0;
#X connect 35 0 17 0;
#X connect 37 0 38 0;
#X connect 38 0 36 0;
#X restore 482 237 pd phaser;
#N canvas 65 53 1301 715 reverb 0;
#X obj 13 19 inlet~;
#X obj 13 43 reverb-echo echo-del1 5.43216;
#X obj 277 215 +~;
#X obj 319 215 +~;
#X obj 67 276 outlet~;
#X obj 137 276 outlet~;
#X obj 238 334 +~;
#X obj 347 335 +~;
#X obj 280 334 -~;
#X obj 387 334 -~;
#X obj 237 390 +~;
#X obj 281 391 +~;
#X obj 325 392 -~;
#X obj 364 392 -~;
#X obj 324 474 *~ 0;
#X obj 282 473 *~ 0;
#X obj 237 472 *~ 0;
#X obj 365 475 *~ 0;
#X obj 632 437 / 200;
#X obj 632 389 min 100;
#X obj 632 412 max 0;
#X obj 238 583 delwrite~ loop-del1 60;
#X obj 283 561 delwrite~ loop-del2 71.9345;
#X obj 364 515 delwrite~ loop-del4 95.945;
#X obj 298 154 delread~ loop-del1 60;
#X obj 340 179 delread~ loop-del2 71.9345;
#X obj 408 233 delread~ loop-del4 95.945;
#X obj 386 208 delread~ loop-del3 86.7545;
#X obj 325 538 delwrite~ loop-del3 86.7545;
#X obj 13 67 reverb-echo echo-del2 8.45346;
#X obj 13 91 reverb-echo echo-del3 13.4367;
#X obj 13 115 reverb-echo echo-del4 21.5463;
#X obj 13 139 reverb-echo echo-del5 34.3876;
#X obj 13 163 reverb-echo echo-del6 55.5437;
#X text 286 42 "early echo" generators \, which also increase echo
density. Open one to see what they do.;
#X text 300 115 Get the outputs of the recirculating delays. Add the
inputs to two of them.;
#X text 420 313 Do a power-conserving mix of them in pairs. First combine
(1 \, 2) and (3 \, 4)...;
#X text 402 385 ...then (1 \, 3) and (2 \, 4);
#X text 446 469 The two mixing stages have a combined gain of 2 \,
so the recirculation gain is limited to 0.5.;
#X text 586 542 Put the signals back into the;
#X text 584 557 recirculating delays.;
#X text 29 296 Tap outputs from here.;
#X text 708 381 0 to 100 to control reverb;
#X text 719 396 time.;
#X text 691 364 feedback gain on a scale of;
#X obj 584 345 r reverb_gain;
#X obj 898 223 switch~;
#X obj 898 138 r effect_id;
#X obj 898 176 == 6;
#X connect 0 0 1 0;
#X connect 1 0 29 0;
#X connect 1 1 29 1;
#X connect 2 0 4 0;
#X connect 2 0 6 0;
#X connect 2 0 8 0;
#X connect 3 0 5 0;
#X connect 3 0 6 1;
#X connect 3 0 8 1;
#X connect 6 0 10 0;
#X connect 6 0 12 0;
#X connect 7 0 12 1;
#X connect 7 0 10 1;
#X connect 8 0 11 0;
#X connect 8 0 13 0;
#X connect 9 0 11 1;
#X connect 9 0 13 1;
#X connect 10 0 16 0;
#X connect 11 0 15 0;
#X connect 12 0 14 0;
#X connect 13 0 17 0;
#X connect 14 0 28 0;
#X connect 15 0 22 0;
#X connect 16 0 21 0;
#X connect 17 0 23 0;
#X connect 18 0 17 1;
#X connect 18 0 16 1;
#X connect 18 0 15 1;
#X connect 18 0 14 1;
#X connect 19 0 20 0;
#X connect 20 0 18 0;
#X connect 24 0 2 1;
#X connect 25 0 3 1;
#X connect 26 0 7 1;
#X connect 26 0 9 1;
#X connect 27 0 7 0;
#X connect 27 0 9 0;
#X connect 29 0 30 0;
#X connect 29 1 30 1;
#X connect 30 0 31 0;
#X connect 30 1 31 1;
#X connect 31 0 32 0;
#X connect 31 1 32 1;
#X connect 32 0 33 0;
#X connect 32 1 33 1;
#X connect 33 0 2 0;
#X connect 33 1 3 0;
#X connect 45 0 19 0;
#X connect 47 0 48 0;
#X connect 48 0 46 0;
#X restore 577 232 pd reverb;
#X obj 413 28 inlet~;
#X obj 413 463 outlet~, f 18;
#X connect 0 0 8 0;
#X connect 1 0 8 0;
#X connect 2 0 8 0;
#X connect 3 0 8 0;
#X connect 5 0 8 0;
#X connect 6 1 8 0;
#X connect 7 0 0 0;
#X connect 7 0 1 0;
#X connect 7 0 2 0;
#X connect 7 0 3 0;
#X connect 7 0 5 0;
#X connect 7 0 6 0;
#X restore 31 194 pd effect_patches;
#N canvas 65 53 1301 715 synth_patches 0;
#N canvas 65 53 1301 715 ring_modulation 0;
#X obj 522 163 hsl 128 15 0 127 0 0 empty empty empty -2 -8 0 10 -262144
-1 -1 0 1;
#X obj 519 191 mtof;
#X obj 519 226 osc~;
#X obj 453 267 *~;
#X obj 452 323 outlet~;
#X obj 769 114 r synth_id;
#X obj 769 152 == 1;
#X obj 769 188 switch~;
#X obj 352 132 hsl 128 15 0 127 0 0 empty empty empty -2 -8 0 10 -262144
-1 -1 0 1;
#X obj 349 159 mtof;
#X obj 349 198 osc~, f 6;
#X obj 349 92 r rm_carrier_midinote;
#X obj 519 124 r rm_mod_midinote;
#X connect 0 0 1 0;
#X connect 1 0 2 0;
#X connect 2 0 3 1;
#X connect 3 0 4 0;
#X connect 5 0 6 0;
#X connect 6 0 7 0;
#X connect 8 0 9 0;
#X connect 9 0 10 0;
#X connect 10 0 3 0;
#X connect 11 0 8 0;
#X connect 12 0 0 0;
#X restore 286 258 pd ring_modulation;
#X obj 480 468 outlet~;
#N canvas 65 53 1301 715 am_modulation 0;
#X obj 522 165 hsl 128 15 0 127 0 0 empty empty empty -2 -8 0 10 -262144
-1 -1 0 1;
#X obj 519 191 mtof;
#X obj 453 267 *~;
#X obj 519 226 phasor~;
#X obj 355 114 hsl 128 15 0 127 0 0 empty empty empty -2 -8 0 10 -262144
-1 -1 0 1;
#X obj 352 141 mtof;
#X obj 352 180 osc~, f 6;
#X obj 474 350 outlet~;
#X obj 769 114 r synth_id;
#X obj 769 188 switch~;
#X obj 769 152 == 2;
#X obj 352 74 r am_carrier_midinote;
#X obj 519 124 r am_mod_midinote;
#X connect 0 0 1 0;
#X connect 1 0 3 0;
#X connect 2 0 7 0;
#X connect 3 0 2 1;
#X connect 4 0 5 0;
#X connect 5 0 6 0;
#X connect 6 0 2 0;
#X connect 8 0 10 0;
#X connect 10 0 9 0;
#X connect 11 0 4 0;
#X connect 12 0 0 0;
#X restore 453 259 pd am_modulation;
#N canvas 65 53 1301 715 fm_modulation 0;
#X obj 480 113 hsl 128 15 0 127 0 0 empty empty empty -2 -8 0 10 -262144
-1 -1 0 1;
#X obj 477 137 mtof;
#X obj 239 100 hsl 128 15 0 127 0 0 empty empty empty -2 -8 0 10 -262144
-1 -1 0 1;
#X obj 236 127 mtof;
#X obj 236 171 osc~, f 6;
#X obj 373 360 outlet~;
#X obj 769 114 r synth_id;
#X obj 769 188 switch~;
#X obj 235 60 r fm_carrier_midinote;
#X obj 477 70 r fm_mod_midinote;
#X obj 477 172 osc~ 1;
#X obj 769 152 == 3;
#X obj 373 270 +~;
#X obj 551 186 r fm_modindex;
#X obj 478 215 *~ 100;
#X connect 0 0 1 0;
#X connect 1 0 10 0;
#X connect 2 0 3 0;
#X connect 3 0 4 0;
#X connect 4 0 12 0;
#X connect 6 0 11 0;
#X connect 8 0 2 0;
#X connect 9 0 0 0;
#X connect 10 0 14 0;
#X connect 11 0 7 0;
#X connect 12 0 5 0;
#X connect 13 0 14 1;
#X connect 14 0 12 1;
#X restore 589 262 pd fm_modulation;
#X connect 0 0 1 0;
#X connect 2 0 1 0;
#X connect 3 0 1 0;
#X restore 29 272 pd synth_patches;
#N canvas 65 53 1301 715 violin_synth 0;
#X obj 551 242 mtof;
#X obj 409 276 vline~;
#X obj 460 527 dac~;
#X obj 554 300 osc~ 220;
#X obj 459 443 *~;
#X msg 409 246 \$1 100 \, 0 500 100;
#X obj 320 175 r velocity;
#X obj 503 157 t b f;
#X msg 420 146 1;
#X obj 460 480 *~ 2;
#X obj 523 72 r piano_note;
#X connect 0 0 3 0;
#X connect 1 0 4 0;
#X connect 3 0 4 1;
#X connect 4 0 9 0;
#X connect 5 0 1 0;
#X connect 6 0 5 0;
#X connect 7 0 8 0;
#X connect 7 1 0 0;
#X connect 8 0 5 0;
#X connect 9 0 2 0;
#X connect 9 0 2 1;
#X connect 10 0 7 0;
#X restore 299 486 pd violin_synth;
#X obj 158 343 ks-synth;
#X obj 68 634 dac~, f 8;
#X msg 1012 79 5;
#X obj 96 316 r note;
#X obj 195 560 *~ 20;
#X msg 268 215 55;
#X obj 264 277 s note;
#X obj 82 499 vline~;
#X obj 93 583 *~;
#X obj 57 353 t b f;
#X msg 17 426 1 1000 \, 0 500 1000;
#X connect 0 0 1 0;
#X connect 0 0 16 0;
#X connect 1 0 8 0;
#X connect 6 0 0 0;
#X connect 6 1 1 1;
#X connect 8 0 18 0;
#X connect 8 0 22 0;
#X connect 10 0 35 0;
#X connect 12 0 11 0;
#X connect 14 0 0 1;
#X connect 16 0 15 0;
#X connect 18 0 2 0;
#X connect 22 0 2 0;
#X connect 26 0 25 0;
#X connect 28 0 27 0;
#X connect 29 0 30 0;
#X connect 32 0 29 0;
#X connect 34 0 27 0;
#X connect 35 0 6 0;
#X connect 39 0 43 0;
#X connect 41 0 25 0;
#X connect 42 0 48 0;
#X connect 43 0 47 1;
#X connect 44 0 45 0;
#X connect 46 0 47 0;
#X connect 47 0 40 0;
#X connect 47 0 40 1;
#X connect 48 0 49 0;
#X connect 48 1 39 0;
#X connect 49 0 46 0;
