#N canvas 302 220 450 300 10;
#X obj 112 91 makenote 64 1000;
#X obj 138 169 noteout 1;
#X msg 99 52 60;
#X msg 151 53 64;
#X msg 214 50 67;
#X obj 113 17 t b b;
#X obj 53 11 bng 15 250 50 0 empty empty empty 17 7 0 10 -262144 -1
-1;
#X connect 0 0 1 0;
#X connect 0 1 1 1;
#X connect 2 0 0 0;
#X connect 5 0 2 0;
#X connect 5 0 3 0;
#X connect 5 0 4 0;
#X connect 6 0 5 0;
