#N canvas 65 53 1301 715 10;
#X obj 234 718 dac~ 1 2;
#X obj 227 662 *~;
#X obj 307 682 *~;
#X obj 395 598 vsl 15 128 0 1 0 0 empty empty empty 0 -9 0 10 -262144
-1 -1 12700 1;
#N canvas 0 50 450 250 (subpatch) 0;
#X array channelR 2.5609e+06 float 2;
#X coords 0 1 2.5609e+06 -1 200 140 1;
#X restore 610 238 graph;
#N canvas 0 50 450 250 (subpatch) 0;
#X array channelL 2.5609e+06 float 2;
#X coords 0 1 2.5609e+06 -1 200 140 1;
#X restore 609 37 graph;
#X obj 191 40 bng 15 250 50 0 empty empty empty 17 7 0 10 -262144 -1
-1;
#X obj 187 81 openpanel;
#X msg 192 134 read -resize \$1 channelL channelR;
#X obj 197 180 soundfiler;
#X floatatom 259 225 5 0 0 0 - - -, f 5;
#X obj 260 270 s sampleSize;
#X obj 217 314 expr 44100 / $f1;
#X floatatom 284 365 5 0 0 0 - - -, f 5;
#X obj 224 420 phasor~;
#X obj 249 478 *~;
#X obj 283 418 r sampleSize;
#X obj 165 552 tabread4~ channelL;
#X obj 323 570 tabread4~ channelR;
#X obj 342 470 snapshot~;
#X obj 350 445 metro 50;
#X obj 385 396 tgl 15 0 empty empty empty 17 7 0 10 -262144 -1 -1 1
1;
#X floatatom 363 501 5 0 0 0 - - -, f 5;
#X obj 366 523 /;
#X obj 421 500 r sampleSize;
#X floatatom 370 552 5 0 0 0 - - -, f 5;
#X obj 614 398 hsl 195 15 0 1 0 0 empty empty empty -2 -8 0 10 -262144
-1 -1 11215 1;
#X obj 391 345 hsl 128 15 -1 1 0 0 empty empty empty -2 -8 0 10 -262144
-1 -1 6482 1;
#X floatatom 385 374 5 0 0 0 - - -, f 5;
#X msg 379 303 0.005;
#X msg 105 377 0;
#X connect 1 0 0 0;
#X connect 2 0 0 1;
#X connect 3 0 2 1;
#X connect 3 0 1 1;
#X connect 6 0 7 0;
#X connect 7 0 8 0;
#X connect 8 0 9 0;
#X connect 9 0 10 0;
#X connect 9 0 12 0;
#X connect 10 0 11 0;
#X connect 12 0 13 0;
#X connect 12 0 14 0;
#X connect 14 0 15 0;
#X connect 15 0 17 0;
#X connect 15 0 18 0;
#X connect 15 0 19 0;
#X connect 16 0 15 1;
#X connect 17 0 1 0;
#X connect 18 0 2 0;
#X connect 19 0 22 0;
#X connect 20 0 19 0;
#X connect 21 0 20 0;
#X connect 22 0 23 0;
#X connect 23 0 25 0;
#X connect 24 0 23 1;
#X connect 25 0 26 0;
#X connect 27 0 28 0;
#X connect 28 0 14 0;
#X connect 29 0 27 0;
#X connect 30 0 14 0;
